<?xml version="1.0" encoding="UTF-8"?>
<svg id="_Шар_1" data-name="Шар 1" xmlns="http://www.w3.org/2000/svg" version="1.1" viewBox="0 0 1080 1080">
  <defs>
    <style>
      .cls-1 {
        fill: #eaeaea;
      }

      .cls-1, .cls-2, .cls-3 {
        stroke-width: 0px;
      }

      .cls-2 {
        fill: #c0474a;
      }

      .cls-3 {
        fill: #fad7e3;
      }
    </style>
  </defs>
  <rect class="cls-2" x="-33.2" y="-19.3" width="1145.9" height="1119"/>
  <g>
    <path class="cls-3" d="M401,482l-62.2,97.9v54.4c0,4.5-1.5,8.4-4.6,11.6-3.1,3.1-6.9,4.7-11.4,4.7s-8.2-1.6-11.2-4.7c-3.1-3.2-4.6-7.1-4.6-11.6v-23.5c2.6-2.8,4.7-6,6.5-9,4.2-7,8.2-14.4,11.7-22.1l.4-.9c.8-1.7,1.6-3.3,1.6-4.7s-.3-1-.8-1.3c-.3-.2-.4-.1-.5,0-2.2.9-3.7,3.5-4.6,5.5-1.1,2.4-2.5,4.6-4.1,6.3-.7.8-1.6,1.1-2.6,1.1-.7,0-1.4-.4-1.8-.9-.5-.6-.7-1.3-.6-1.9.1-1.7.6-3.4,1.4-4.9,1-1.8,1.8-3.7,2.6-5.5.8-1.8,1.6-3.6,2.5-5.4,1.3-2.6,2.2-5.3,2.4-8.1-.4-.8-1.1-1.3-1.9-1.5-.8,0-1.5.2-2.1.8-.8.8-1.3,1.6-1.7,2.4-3.3,7.1-6.2,13.3-8.9,18.5l-4-6.5c1.9-5.5,3.8-10.7,5.6-15.7,1.9-5.4,1.8-8.5.8-9.2-.8-.6-1.6-.8-2.4-.5-1.1.3-2.2,1.2-2.8,2.6-1.4,2.9-2.4,5.7-3.1,8.3-.8,2.6-1.6,5.2-2.5,7.8l-4.7-7.5c.6-1.6,1-3.1,1.5-4.6.4-1.4.5-3.1.2-5-.2-1-.8-1.4-1.4-1.5-.9-.3-1.9,0-2.5.6-.9,1-1.7,2.1-2.2,3.3l-2-3.2-41.6-66c-2.6-4.2-3.5-8.3-2.9-12.1.6-3.9,2.5-7.1,5.6-9.6,2.9-2.4,6.4-3.6,10.3-3.6s6.5.8,8.7,2.6c1.9,1.5,3.7,3.5,5.3,6.2l51.3,83.1,52.2-84c1.6-2.4,3.5-4.4,5.7-5.7,2.4-1.4,5.1-2.1,8.4-2.1s7.3,1.5,9.9,4.2c2.4,2.6,3.9,5.9,4.3,9.7.4,3.8-.6,7.6-2.9,11.4Z"/>
    <path class="cls-3" d="M563.1,456.7c-4.5,0-8.3,1.5-11.4,4.6-3.1,3.1-4.7,7-4.7,11.7v111.2c0,7.8-1.9,14.7-5.8,20.6-3.9,6-9.3,10.7-16.2,14.1-7,3.4-15.1,5.2-24.3,5.2s-18-1.8-25.3-5.2c-7.2-3.4-12.8-8.2-16.9-14.1-4-5.9-6-12.8-6-20.5v-111.2c0-4.7-1.5-8.6-4.5-11.7-3-3.1-6.9-4.6-11.6-4.6s-8.3,1.5-11.4,4.6c-3.1,3.1-4.7,7-4.7,11.7v111.2c0,13.6,3.5,25.8,10.3,36.4,6.8,10.6,16.4,18.9,28.5,24.9,12,5.9,25.9,8.9,41.4,8.9s28.6-3,40.3-8.9c11.8-5.9,21.2-14.3,27.8-24.9,6.7-10.6,10.1-22.8,10.1-36.4v-111.2c0-4.7-1.5-8.6-4.3-11.6-2.9-3.1-6.8-4.7-11.5-4.7Z"/>
    <g>
      <path class="cls-3" d="M743.9,443.2c-.3.1-.6.3-.8.5,1.2-1.7,2.7-3.1,4.2-3.9,2.4-1.3,5.3-1.9,8.9-1.7.5,0,1,0,1.4.2-1.9.6-3.7,1.2-5.6,1.7-2.6.8-5.3,1.8-8.2,3.1Z"/>
      <path class="cls-3" d="M770.3,453.8c-.1,1.4-.4,2.8-1,4.2,0,.2,0,.4-.2.6-.3.8-.6,1.5-1,2.4l-3.6,7.2-75.1,149.9c-1.6,3.1-3.6,5.5-6,7.1-2.6,1.7-5.7,2.4-9.2,2.2-4.6-.3-10.7-2.4-13.9-11l-58.6-163.5c-2.2-6.7-2.1-12.3.4-16.7,1.8-3.3,5.8-7.1,13.7-6.7,7.1.5,12,4.2,14.2,10.8l46.8,138,62.5-127.7,1.7-3.6c0,0,0-.2.1-.3,0,.6.1,1.1.6,1.6.7,1,3.8,1.1,9.2-.8,4.8-1.7,9.9-3.5,15.1-5.4,1.3,1.2,2.2,2.7,2.8,4,.2.6.4,1,.6,1.6-4.4,2.2-9.4,4.6-14.9,7.1-.8.3-1.6.9-2.4,1.7-.6.6-1,1.3-.8,2.1s.6,1.5,1.5,1.9c2.8-.2,5.5-1,8.1-2.4,1.8-.9,3.6-1.7,5.3-2.5,1.2-.6,2.6-1.2,3.9-1.8Z"/>
    </g>
    <path class="cls-3" d="M817.3,461.3c-3-3.1-6.9-4.6-11.6-4.6s-8.3,1.5-11.4,4.6c-3.1,3.1-4.7,7-4.7,11.7v161.3c0,4.5,1.6,8.4,4.6,11.6,3.1,3.2,6.9,4.8,11.5,4.8s8.6-1.6,11.6-4.8c3-3.1,4.5-7,4.5-11.5v-161.3c0-4.7-1.5-8.6-4.5-11.7Z"/>
  </g>
  <path class="cls-1" d="M328.1,570c-.7-.5-1.5-.7-2.2-.7s-1,.1-1.5.3c-2.5,1.1-4.6,3.5-6.3,7.2-.6,1.3-1.2,2.5-2,3.6.1-.3.3-.7.5-1,1-1.9,1.8-3.8,2.6-5.7.8-1.7,1.5-3.5,2.4-5.2,1.5-3.1,2.4-6.2,2.7-9.6,0-.5,0-1-.3-1.5-.9-1.8-2.6-3.1-4.4-3.3-1.9-.3-3.7.4-5.1,1.9-1,1-1.7,2.2-2.3,3.3-2.1,4.6-4.1,8.8-5.9,12.6,1.7-4.7,3.3-9.3,4.9-13.7,2.5-6.8,2.4-11.2-.4-13.1-1.6-1.2-3.4-1.5-5.2-1-2.1.6-4,2.2-5,4.4-1,2.2-1.8,4.4-2.6,6.4.6-1.9.7-4.2.3-6.6-.3-2-1.7-3.6-3.7-4.2-2.2-.6-4.4,0-6,1.6-.6.8-1.2,1.5-1.7,2.4-.8,1.3-1.5,2.6-1.9,4-2.6,7.9-5.3,16.3-8.3,25.2-.1-1-.2-2.1-.1-3.1.1-2.5.3-5.1.8-7.8.1-1.2,0-2.4-.3-3.5-.4-1.5-1.5-2.6-2.9-2.9-1.6-.3-3.3.1-4.4,1.4-2.3,2.5-3.7,6.1-4.2,10.8-.6,5.6-.9,11.4-.8,17.2,0,.7,0,1.5,0,2.2-.6.8-1.4,1.6-2.1,2.4-9.2,9.9-21.6,22.8-35.1,34.3-11.3,9.6-21.3,16-31.4,20.1-11.7,4.7-21.6,7.8-31.9,7.4h-.1c-.9,0-1.7.8-1.7,1.7,0,.3.1.7.3,1,.3,1.5.6,7.5.9,13.4,1.2,22.3,2.2,32.6,4.6,34.8.5.4,1,.6,1.6.6h.1c16.2-1.3,34-6.7,53.1-16.2,12.9-6.5,22.9-12.9,31.6-20.2,21-17.8,35.9-33.9,46.5-50.8,2.2-1.3,4.2-2.8,5.8-4.3,4.1-3.7,6.9-7.9,9.4-12,4.3-7.2,8.3-14.7,11.8-22.4l.4-.9c1-1.9,1.9-4,1.9-6.2,0-1.6-.9-3.3-2.3-4.2ZM325.5,578.9l-.4.9c-3.5,7.6-7.4,15.1-11.7,22.1-1.8,3.1-3.9,6.2-6.5,9-2.2,2.4-4.7,4.5-7.9,6.4-.2.1-.4.3-.6.6-10.5,16.7-25.1,32.7-46.1,50.3-8.4,7.1-18.3,13.4-30.9,19.8-18.5,9.2-35.7,14.6-51.2,15.8-1.7-3.3-2.7-21.9-3.3-32.1-.2-4-.4-7.6-.6-10.1,0-.8,0-1.6-.1-2.3,11.3,0,21.9-4,31.1-7.7,10.3-4.2,21-11,32.3-20.6,13.7-11.6,26.2-24.6,35.5-34.6.8-.8,1.5-1.6,2.2-2.4.6-.3,1-1,.9-1.7,0-1-.1-2-.1-2.8-.1-5.7.1-11.3.7-16.8.4-4,1.6-6.9,3.4-8.9.3-.3.8-.5,1.1-.4.3,0,.4.3.5.6.2.7.3,1.4.1,2.2-.3,2.7-.6,5.4-.8,8,0,1.8.1,3.5.4,5.2.1,1,.3,1.9.3,2.8,0,1.2.8,2,1.7,2.4.6.2,1.3.1,1.9-.1.6-.3,1-.8,1.1-1.5.3-1.4.8-2.7,1.2-4,2.9-9,5.7-17.6,8.4-25.6.2-.6.4-1.2.7-1.8.6-1.3,1.3-2.4,2.2-3.3.6-.6,1.6-.9,2.5-.6.6.1,1.2.6,1.4,1.5.3,1.9.2,3.6-.2,5-.5,1.5-.9,3-1.5,4.6-1.3,4.6-2.7,9.9-4.2,15.6-.3,1.1,0,2.3.7,3.1.3.5,1.2,1.2,2.8,1,.8-.1,1.4-.6,1.7-1.4l1.5-4.2c.8-2.2,1.5-4.4,2.3-6.6.9-2.6,1.7-5.2,2.5-7.8.7-2.6,1.7-5.3,3.1-8.3.6-1.3,1.7-2.3,2.8-2.6.8-.3,1.6,0,2.4.5,1,.7,1.1,3.8-.8,9.2-1.8,5-3.7,10.2-5.6,15.7,0,.2-.2.5-.3.8-.6,1.8-1.1,3.7-1.5,5.5-.2,1.4.3,2.1.8,2.5.5.4,1.3.8,2.6.1.9-.4,1.7-1.1,2.1-2,0-.1.1-.3.2-.4,2.6-5.2,5.6-11.4,8.9-18.5.3-.8.9-1.5,1.7-2.4.6-.6,1.3-.9,2.1-.8.8.1,1.5.6,1.9,1.5-.2,2.8-1,5.6-2.4,8.1-.9,1.8-1.7,3.6-2.5,5.4-.8,1.8-1.6,3.7-2.6,5.5-.8,1.5-1.2,3.2-1.4,4.9,0,.7.1,1.4.6,1.9.4.5,1.1.8,1.8.9,1,0,1.9-.3,2.6-1.1,1.6-1.7,3-3.9,4.1-6.3.9-2,2.4-4.6,4.6-5.5,0,0,.2-.1.5,0,.5.3.8.9.8,1.3,0,1.5-.8,3.1-1.6,4.7Z"/>
  <path class="cls-1" d="M900.3,307.5c-2.2-2.5-12.5-3.4-34.8-4.5-5.9-.3-11.9-.6-13.4-.9-.3-.2-.6-.3-1-.3-1,0-1.7.8-1.7,1.7h0c.4,10.4-2.7,20.3-7.4,32-4.1,10-10.6,20.3-20,31.5-11.5,13.6-24.4,26-34.2,35.2-.8.8-1.6,1.5-2.4,2.2-.8,0-1.5-.1-2.2-.1-5.8,0-11.6.2-17.2.8-4.7.6-8.3,2-10.8,4.3-1.2,1.1-1.7,2.8-1.4,4.4.4,1.5,1.5,2.5,3,2.9,1.1.3,2.3.4,3.5.2,2.6-.3,5.3-.6,7.7-.7,1,0,2,0,3.1.1-8.8,2.9-17.2,5.7-25.2,8.3-2.3.8-4.5,2-6.3,3.7-1.6,1.5-2.2,3.8-1.6,6,.6,1.9,2.2,3.3,4.3,3.7,2.4.4,4.5.3,6.5-.3-2,.7-4.2,1.6-6.3,2.6-2.2,1-3.9,2.9-4.4,5-.5,1.8-.1,3.6,1,5.2,0,.1.2.3.3.3,2,2.4,6.3,2.4,12.8,0,4.4-1.6,9-3.3,13.7-4.9-3.8,1.8-8,3.8-12.6,6-1.1.5-2.2,1.3-3.3,2.2-1.5,1.4-2.2,3.2-1.9,5.1.3,1.9,1.5,3.5,3.4,4.5.4.2,1,.3,1.5.3,3.3-.3,6.5-1.2,9.6-2.7,1.7-.9,3.5-1.7,5.2-2.4.5-.2,1-.5,1.5-.8,1.4-.6,2.8-1.3,4.2-1.9.3-.1.7-.3,1-.5-1.1.8-2.3,1.5-3.6,2.1-.6.3-1.2.6-1.8,1-2.7,1.5-4.6,3.3-5.4,5.3-.6,1.3-.4,2.6.3,3.7.1.2.2.3.4.5.9,1.1,2.4,1.8,3.7,1.8,2.2,0,4.2-1,6.2-1.9l.9-.4c7.7-3.5,15.2-7.6,22.3-11.9,5.8-3.5,11.9-7.8,16.3-15.3,16.9-10.7,33-25.5,50.7-46.6,7.3-8.7,13.7-18.7,20.1-31.6,9.5-19.1,14.9-37,16.2-53.1,0-.6-.2-1.3-.6-1.7ZM881.8,360.8c-6.4,12.6-12.6,22.5-19.7,30.9-17.6,21-33.5,35.7-50.2,46.1-.2.1-.4.3-.6.6-4.1,7-9.8,11.1-15.3,14.4-7,4.2-14.4,8.2-22.1,11.7l-.9.4c-1.7.8-3.3,1.6-4.7,1.5-.4,0-1-.3-1.3-.8-.2-.3-.1-.4,0-.6.9-2.1,3.5-3.6,5.5-4.6,2.4-1.1,4.5-2.5,6.2-4,.8-.7,1.2-1.6,1.1-2.6,0-.7-.3-1.3-.9-1.8-.5-.4-1.2-.7-1.9-.6-1.7.1-3.4.6-5,1.5-.6.3-1,.5-1.6.8-1.3.6-2.6,1.2-3.9,1.8-1.7.8-3.5,1.6-5.3,2.5-2.6,1.3-5.3,2.2-8.1,2.4-.8-.4-1.3-1.1-1.5-1.9s.2-1.5.8-2.1c.8-.8,1.6-1.3,2.4-1.7,5.6-2.5,10.5-4.9,14.9-7.1,1.4-.7,2.7-1.4,4-2,.9-.5,1.7-1.2,2-2.1.6-1.3.3-2.2,0-2.7-.4-.5-1.2-1-2.6-.8-1.8.3-3.7.8-5.5,1.5-.5.1-.9.3-1.3.5-5.3,1.9-10.3,3.7-15.1,5.4-5.4,1.9-8.5,1.9-9.2.8-.4-.5-.6-1-.6-1.6s0-.6,0-.8c.2-.8.9-1.7,1.9-2.3.2-.2.5-.3.8-.5,2.8-1.3,5.6-2.4,8.2-3.1,1.9-.6,3.7-1.1,5.6-1.7,3-1,6-2,8.9-3.1,1.4-.5,2.7-1,4.2-1.5.7-.2,1.2-.9,1.3-1.7.2-1.5-.5-2.4-1-2.7-.8-.7-1.9-1-3.1-.7-7.8,1.9-14.6,3.8-20.2,5.6-1.4.5-3.1.6-5,.2-1-.1-1.4-.8-1.5-1.3-.3-.9,0-1.9.6-2.5,1.5-1.3,3.2-2.4,5.1-3,8-2.7,16.6-5.5,25.5-8.5,1.3-.4,2.7-.8,4-1.1.6-.2,1.2-.6,1.5-1.2.3-.6.3-1.2.1-1.8-.3-1-1.2-1.7-2.3-1.8-1,0-1.9-.1-2.8-.3-1.7-.3-3.3-.5-5.2-.4-2.5.1-5.2.4-8,.8-.7.1-1.4,0-2.2-.1-.3,0-.4-.2-.5-.5s0-.8.3-1.1c1.9-1.8,4.9-3,8.9-3.4,5.5-.6,11.2-.8,16.8-.8.9,0,1.8,0,2.9.1.6,0,1.2-.3,1.5-.8.9-.8,1.7-1.5,2.6-2.3,10-9.3,22.9-21.8,34.5-35.5,9.6-11.4,16.4-22.1,20.5-32.4,3.7-9.2,7.6-19.8,7.6-31.1.7,0,1.5,0,2.3.1,2.6.2,6.1.4,10.1.6,10.2.5,28.8,1.5,32.1,3.2-1.2,15.5-6.5,32.8-15.7,51.2Z"/>
  <g>
    <path class="cls-3" d="M455,724c-2.4,0-4.7-.4-6.8-1.1-2.1-.7-3.7-1.7-4.8-2.8-.5-.6-.7-1.2-.7-1.9,0-.7.4-1.3,1-1.7.7-.6,1.4-.8,2.1-.7.7,0,1.3.4,1.7.9.6.7,1.5,1.3,2.8,1.9,1.3.6,2.8.9,4.4.9s3.6-.3,4.6-1c1.1-.7,1.6-1.5,1.6-2.6,0-1-.5-1.9-1.5-2.7-1-.8-2.9-1.4-5.6-1.9-3.5-.7-6.1-1.7-7.6-3.1-1.6-1.4-2.4-3.1-2.4-5.1s.5-3.2,1.6-4.4c1-1.2,2.4-2,4-2.6,1.6-.6,3.3-.9,5.1-.9s4.3.4,6.1,1.1c1.8.7,3.2,1.7,4.2,3,.5.6.7,1.1.7,1.7,0,.6-.3,1.1-.9,1.5-.6.4-1.2.5-2,.4-.8-.1-1.4-.5-1.9-.9-.9-.8-1.8-1.4-2.8-1.7-1-.3-2.2-.5-3.5-.5s-2.8.3-3.9.8c-1.1.5-1.6,1.3-1.6,2.3s.2,1.2.5,1.7c.3.5,1,1,2,1.4,1,.4,2.4.8,4.3,1.2,2.6.5,4.7,1.2,6.2,2,1.5.8,2.6,1.7,3.3,2.8.7,1.1,1,2.3,1,3.7s-.4,3-1.3,4.3c-.9,1.3-2.1,2.3-3.8,3.1-1.7.8-3.7,1.1-6.2,1.1Z"/>
    <path class="cls-3" d="M485.9,724c-2.8,0-5.3-.6-7.4-1.9-2.2-1.3-3.9-3-5.1-5.2-1.2-2.2-1.9-4.6-1.9-7.4s.6-5.3,1.8-7.5c1.2-2.2,2.9-3.9,5-5.1,2.1-1.2,4.6-1.9,7.3-1.9s3.9.4,5.6,1.2c1.7.8,3.2,2,4.6,3.5.5.6.7,1.1.5,1.7-.1.6-.5,1.1-1.1,1.6-.5.3-1,.5-1.6.3-.6-.1-1.1-.4-1.6-.9-1.7-1.8-3.8-2.7-6.4-2.7s-3.3.4-4.7,1.2c-1.4.8-2.4,2-3.2,3.4-.8,1.5-1.1,3.2-1.1,5.2s.4,3.5,1.2,5c.8,1.5,1.9,2.6,3.3,3.5,1.4.9,3,1.3,4.9,1.3s2.3-.1,3.2-.4c.9-.3,1.8-.8,2.5-1.4.6-.4,1.1-.7,1.7-.8.6,0,1.1.1,1.6.5.6.5.9,1,1,1.6,0,.6-.1,1.2-.6,1.6-2.5,2.3-5.6,3.5-9.4,3.5Z"/>
    <path class="cls-3" d="M507,713.4c-.8,0-1.4-.3-1.9-.8-.5-.5-.8-1.1-.8-1.9v-25c0-.8.3-1.4.8-1.9s1.1-.7,1.9-.7,1.4.2,1.9.7.7,1.1.7,1.9v25c0,.8-.2,1.4-.7,1.9-.5.5-1.1.8-1.9.8ZM507,723.8c-.8,0-1.4-.3-1.9-.8-.5-.5-.8-1.1-.8-1.9v-23.3c0-.8.3-1.4.8-1.9.5-.5,1.1-.7,1.9-.7s1.4.2,1.9.7c.5.5.7,1.1.7,1.9v23.3c0,.8-.2,1.4-.7,1.9-.5.5-1.1.8-1.9.8ZM528.4,723.8c-.8,0-1.4-.3-1.9-.8s-.8-1.1-.8-1.9v-12.8c0-2-.4-3.6-1.1-4.9-.7-1.3-1.7-2.2-2.9-2.8-1.2-.6-2.7-.9-4.3-.9s-2.8.3-4,.9c-1.2.6-2.1,1.4-2.8,2.4-.7,1-1,2.1-1,3.4h-3.3c0-2.2.5-4.1,1.6-5.9,1.1-1.7,2.5-3.1,4.4-4.1s3.9-1.5,6.2-1.5,4.5.5,6.4,1.5c1.9,1,3.4,2.5,4.5,4.5,1.1,2,1.6,4.4,1.6,7.3v12.8c0,.8-.3,1.4-.8,1.9-.5.5-1.1.8-1.9.8Z"/>
    <path class="cls-3" d="M552.9,724c-2.8,0-5.3-.6-7.5-1.9-2.2-1.2-3.9-2.9-5.1-5.1-1.2-2.2-1.9-4.7-1.9-7.5s.6-5.4,1.9-7.5c1.2-2.2,2.9-3.9,5.1-5.1,2.2-1.2,4.6-1.9,7.5-1.9s5.3.6,7.4,1.9c2.2,1.2,3.9,2.9,5.1,5.1,1.2,2.2,1.9,4.7,1.9,7.5s-.6,5.3-1.8,7.5c-1.2,2.2-2.9,3.9-5.1,5.1-2.2,1.2-4.6,1.9-7.5,1.9ZM552.9,719.3c1.8,0,3.4-.4,4.8-1.3,1.4-.8,2.5-2,3.3-3.4.8-1.5,1.2-3.1,1.2-5.1s-.4-3.6-1.2-5.1c-.8-1.5-1.9-2.6-3.3-3.5-1.4-.8-3-1.3-4.8-1.3s-3.4.4-4.8,1.3c-1.4.8-2.5,2-3.3,3.5-.8,1.5-1.2,3.2-1.2,5.1s.4,3.6,1.2,5.1c.8,1.5,1.9,2.6,3.3,3.4,1.4.8,3,1.3,4.8,1.3Z"/>
    <path class="cls-3" d="M588.1,724c-2.8,0-5.3-.6-7.5-1.9-2.2-1.2-3.9-2.9-5.1-5.1-1.2-2.2-1.9-4.7-1.9-7.5s.6-5.4,1.9-7.5c1.2-2.2,2.9-3.9,5.1-5.1,2.2-1.2,4.6-1.9,7.5-1.9s5.3.6,7.4,1.9c2.2,1.2,3.9,2.9,5.1,5.1,1.2,2.2,1.9,4.7,1.9,7.5s-.6,5.3-1.8,7.5c-1.2,2.2-2.9,3.9-5.1,5.1-2.2,1.2-4.6,1.9-7.5,1.9ZM588.1,719.3c1.8,0,3.4-.4,4.8-1.3,1.4-.8,2.5-2,3.3-3.4.8-1.5,1.2-3.1,1.2-5.1s-.4-3.6-1.2-5.1c-.8-1.5-1.9-2.6-3.3-3.5-1.4-.8-3-1.3-4.8-1.3s-3.4.4-4.8,1.3c-1.4.8-2.5,2-3.3,3.5-.8,1.5-1.2,3.2-1.2,5.1s.4,3.6,1.2,5.1c.8,1.5,1.9,2.6,3.3,3.4,1.4.8,3,1.3,4.8,1.3Z"/>
    <path class="cls-3" d="M617.2,723.8c-1.5,0-2.9-.4-4.1-1.3-1.2-.8-2.1-2-2.8-3.4-.7-1.4-1-3.1-1-5v-28.5c0-.8.2-1.4.7-1.9.5-.5,1.1-.7,1.9-.7s1.4.2,1.9.7c.5.5.7,1.1.7,1.9v28.5c0,1.3.2,2.3.7,3.2.5.8,1.1,1.3,1.9,1.3h1.3c.7,0,1.3.2,1.7.7.4.5.7,1.1.7,1.9s-.3,1.4-1,1.9c-.7.5-1.5.7-2.6.7h-.1Z"/>
  </g>
</svg>